<?xml version="1.0" standalone="no"?>
<!DOCTYPE svg PUBLIC "-//W3C//DTD SVG 20010904//EN"
 "http://www.w3.org/TR/2001/REC-SVG-20010904/DTD/svg10.dtd">
<svg version="1.0" xmlns="http://www.w3.org/2000/svg"
 width="408.000000pt" height="112.000000pt" viewBox="0 0 408.000000 112.000000"
 preserveAspectRatio="xMidYMid meet">

<g transform="translate(0.000000,112.000000) scale(0.100000,-0.100000)"
fill="#000000" stroke="none">
<path d="M430 815 l0 -105 90 0 90 0 0 -230 0 -230 195 0 195 0 0 100 0 100
-90 0 -90 0 -2 233 -3 232 -192 3 -193 2 0 -105z"/>
<path d="M1762 771 c-8 -4 -12 -19 -10 -32 2 -19 9 -24 33 -24 33 0 45 25 25
50 -14 17 -29 19 -48 6z"/>
<path d="M2540 765 c-20 -25 -8 -50 25 -50 24 0 31 5 33 24 6 37 -34 55 -58
26z"/>
<path d="M3609 764 c-17 -21 0 -49 31 -49 31 0 48 28 31 49 -8 9 -21 16 -31
16 -10 0 -23 -7 -31 -16z"/>
<path d="M1390 590 l0 -180 35 0 34 0 3 113 3 112 79 -112 c69 -98 84 -113
108 -113 l28 0 0 180 0 180 -35 0 -34 0 -3 -112 -3 -113 -80 113 c-69 96 -84
112 -107 112 l-28 0 0 -180z"/>
<path d="M2718 728 c-20 -7 -28 -16 -28 -34 0 -17 -6 -24 -20 -24 -16 0 -20
-7 -20 -30 0 -23 5 -30 19 -30 17 0 19 -9 22 -85 5 -97 14 -112 74 -117 37 -3
40 -1 43 25 3 23 0 27 -22 27 -31 0 -39 23 -34 96 3 45 5 49 31 52 23 3 27 8
27 33 0 25 -4 29 -29 29 -26 0 -30 4 -33 33 -3 32 -4 33 -30 25z"/>
<path d="M1756 654 c-3 -9 -6 -67 -6 -130 l0 -114 30 0 30 0 0 130 0 130 -24
0 c-13 0 -27 -7 -30 -16z"/>
<path d="M1890 540 l0 -130 30 0 30 0 0 79 c0 71 2 82 22 95 12 9 30 16 40 16
14 0 18 8 18 35 0 41 -15 45 -53 15 -25 -20 -25 -20 -30 0 -3 14 -14 20 -31
20 l-26 0 0 -130z"/>
<path d="M2080 540 l0 -130 30 0 30 0 0 85 c0 72 3 88 20 105 24 24 43 25 64
4 12 -12 16 -37 16 -105 l0 -89 30 0 30 0 0 69 c0 122 38 173 90 121 17 -17
20 -33 20 -105 l0 -85 30 0 30 0 0 90 c0 129 -25 170 -102 170 -19 0 -44 -7
-56 -16 -21 -15 -25 -15 -41 0 -22 20 -80 21 -109 0 -20 -14 -22 -14 -22 0 0
11 -10 16 -30 16 l-30 0 0 -130z"/>
<path d="M2530 540 l0 -130 35 0 35 0 0 130 0 130 -35 0 -35 0 0 -130z"/>
<path d="M2913 650 c-87 -53 -82 -189 8 -236 44 -22 132 -15 161 14 l21 21
-27 12 c-20 10 -29 10 -38 1 -28 -28 -118 -2 -118 34 0 11 20 14 101 14 l102
0 -7 41 c-9 56 -21 76 -59 99 -41 25 -103 25 -144 0z m123 -53 c39 -34 24 -47
-52 -47 -57 0 -64 2 -64 19 0 24 36 51 67 51 12 0 34 -11 49 -23z"/>
<path d="M3228 655 c-93 -51 -87 -201 9 -242 49 -20 128 -13 155 15 l20 20
-21 11 c-15 8 -27 9 -40 1 -44 -23 -121 0 -121 36 0 11 20 14 100 14 l100 0 0
25 c0 43 -27 94 -62 115 -39 23 -101 26 -140 5z m118 -58 c39 -34 24 -47 -52
-47 -57 0 -64 2 -64 19 0 24 36 51 67 51 12 0 34 -11 49 -23z"/>
<path d="M3610 540 l0 -130 30 0 30 0 0 130 0 130 -30 0 -30 0 0 -130z"/>
<path d="M3792 650 c-59 -36 -80 -126 -42 -187 51 -84 180 -83 236 2 22 33 21
107 -1 141 -40 62 -130 82 -193 44z m125 -62 c27 -25 30 -73 7 -106 -11 -16
-25 -22 -55 -22 -49 0 -79 27 -79 72 0 68 78 102 127 56z"/>
<path d="M3472 468 c-30 -30 0 -75 43 -64 41 11 29 76 -15 76 -9 0 -21 -5 -28
-12z"/>
</g>
</svg>
